<?xml version="1.0" encoding="utf-8"?>
<!-- Generator: Adobe Illustrator 24.1.1, SVG Export Plug-In . SVG Version: 6.00 Build 0)  -->
<svg version="1.1" id="Layer_1" xmlns="http://www.w3.org/2000/svg" xmlns:xlink="http://www.w3.org/1999/xlink" x="0px" y="0px"
	 viewBox="0 0 206 70" style="enable-background:new 0 0 206 70;" xml:space="preserve">
<style type="text/css">
	.st0{fill:#3C0B75;}
	.st1{fill:#FCB614;}
</style>
<g>
	<path class="st0" d="M68.78,22.28v-8.32h36.85v8.32H92.16v36.67h-9.89V22.28H68.78z"/>
	<path class="st0" d="M120.69,13.96v44.98h-9.89V13.96H120.69z"/>
	<path class="st0" d="M139.28,13.96v36.67h21.92v8.32h-31.82V13.96H139.28z"/>
	<path class="st0" d="M176.64,13.96v36.67h21.92v8.32h-31.82V13.96H176.64z"/>
</g>
<path class="st1" d="M31.33,46.06c-8.23-0.26-14.61-6.51-14.61-16s6.65-16.01,15.14-16.01S47,20.37,47,30.06
	c0,3.97-1.12,7.37-3.02,10.02c-0.29,0.41-0.02,0.98,0.49,0.98h15.79c0.25,0,0.47-0.15,0.57-0.37C62.23,37.39,63,33.81,63,30.06
	C63,14.12,49.06,1.2,31.86,1.2S0.72,14.12,0.72,30.06s13.94,28.85,31.14,28.85c3.59,0,7.03-0.57,10.25-1.61
	c0.22-0.07,0.46-0.02,0.62,0.15L54.2,68.92c0.39,0.39,1.05,0.12,1.05-0.43V46.66c0-0.34-0.27-0.61-0.61-0.61L31.33,46.06
	L31.33,46.06z"/>
</svg>
