<?xml version="1.0" encoding="utf-8"?>
<!-- Generator: Adobe Illustrator 24.1.1, SVG Export Plug-In . SVG Version: 6.00 Build 0)  -->
<svg version="1.1" id="Layer_1" xmlns="http://www.w3.org/2000/svg" xmlns:xlink="http://www.w3.org/1999/xlink" x="0px" y="0px"
	 viewBox="0 0 336 70" style="enable-background:new 0 0 336 70;" xml:space="preserve">
<style type="text/css">
	.st0{fill:#3C0B75;}
	.st1{fill:#FCB614;}
	.st2{fill:#FFFFFF;}
</style>
<polygon class="st0" points="313.06,70 0,70 22.94,0 336,0 "/>
<path class="st1" d="M51.33,46.06c-8.23-0.26-14.61-6.51-14.61-16s6.65-16.01,15.14-16.01S67,20.37,67,30.06
	c0,3.97-1.12,7.37-3.02,10.02c-0.29,0.41-0.02,0.98,0.49,0.98h15.79c0.25,0,0.47-0.15,0.57-0.37C82.23,37.39,83,33.81,83,30.06
	C83,14.12,69.06,1.2,51.86,1.2S20.72,14.12,20.72,30.06s13.94,28.85,31.14,28.85c3.59,0,7.03-0.57,10.25-1.61
	c0.22-0.07,0.46-0.02,0.62,0.15L74.2,68.92c0.39,0.39,1.05,0.12,1.05-0.43V46.66c0-0.34-0.27-0.61-0.61-0.61L51.33,46.06
	L51.33,46.06z"/>
<path class="st2" d="M136.39,45.89h-30.26c-0.34,0-0.61-0.27-0.61-0.61v-9.03c0-0.34,0.27-0.61,0.61-0.61h28.27
	c0.34,0,0.61-0.27,0.61-0.61V24.4c0-0.34-0.27-0.61-0.61-0.61h-28.27c-0.34,0-0.61-0.27-0.61-0.61v-8.23c0-0.34,0.27-0.61,0.61-0.61
	h28.09c0.34,0,0.61-0.27,0.61-0.61V2.69c0-0.34-0.27-0.61-0.61-0.61h-43.8c-0.34,0-0.61,0.27-0.61,0.61v54.85
	c0,0.34,0.27,0.61,0.61,0.61h34.93c0.16,0,0.32-0.06,0.43-0.18l11.03-11.03C137.21,46.55,136.93,45.89,136.39,45.89z"/>
<path class="st2" d="M179.55,17.87v12.38c0,0.57-0.72,0.83-1.09,0.39L154.98,2.29c-0.12-0.14-0.29-0.22-0.47-0.22h-12.16
	c-0.34,0-0.61,0.27-0.61,0.61v42.83c0,0.34,0.27,0.61,0.61,0.61h5.44c0.55,0,0.82,0.66,0.43,1.05l-6.31,6.31
	c-0.12,0.11-0.18,0.27-0.18,0.43v3.61c0,0.34,0.27,0.61,0.61,0.61h14.31c0.34,0,0.61-0.27,0.61-0.61V29.97
	c0-0.57,0.72-0.83,1.09-0.39l23.49,28.35c0.12,0.14,0.29,0.22,0.47,0.22h12.16c0.34,0,0.61-0.27,0.61-0.61V3.55
	c0-0.55-0.66-0.82-1.05-0.43l-14.31,14.31C179.61,17.55,179.55,17.71,179.55,17.87z"/>
<path class="st2" d="M283.09,2.07h-14.82c-0.24,0-0.46,0.14-0.56,0.37L243.5,57.29c-0.18,0.41,0.12,0.86,0.56,0.86h14.83
	c0.25,0,0.47-0.15,0.57-0.38l4.1-10.13c0.09-0.23,0.32-0.38,0.57-0.38h23.3l0.03,0.07h11.49c0.55,0,0.82,0.66,0.43,1.05l-7.9,7.9
	c-0.17,0.17-0.23,0.44-0.13,0.66l0.33,0.82c0.09,0.23,0.32,0.38,0.57,0.38h15.15c0.44,0,0.74-0.46,0.56-0.86L283.66,2.44
	C283.56,2.22,283.34,2.07,283.09,2.07z M268.69,34.72l6.3-15.69c0.21-0.51,0.93-0.51,1.14,0l6.3,15.69c0.16,0.4-0.13,0.84-0.57,0.84
	h-12.61C268.83,35.56,268.53,35.12,268.69,34.72z"/>
<path class="st2" d="M257.06,2.07h-55.73c-0.34,0-0.61,0.27-0.61,0.61v11.35c0,0.34,0.27,0.61,0.61,0.61h16
	c0.34,0,0.61,0.27,0.61,0.61v42.27c0,0.34,0.27,0.61,0.61,0.61h14.64c0.34,0,0.61-0.27,0.61-0.61V15.26c0-0.34,0.27-0.61,0.61-0.61
	h11.3c0.16,0,0.32-0.06,0.43-0.18l11.35-11.35C257.88,2.73,257.61,2.07,257.06,2.07z"/>
</svg>
