<?xml version="1.0" encoding="utf-8"?>
<!-- Generator: Adobe Illustrator 24.1.1, SVG Export Plug-In . SVG Version: 6.00 Build 0)  -->
<svg version="1.1" id="Layer_1" xmlns="http://www.w3.org/2000/svg" xmlns:xlink="http://www.w3.org/1999/xlink" x="0px" y="0px"
	 viewBox="0 0 263 70" style="enable-background:new 0 0 263 70;" xml:space="preserve">
<style type="text/css">
	.st0{fill:#3C0B75;}
	.st1{fill:#FCB614;}
</style>
<g>
	<path class="st0" d="M86.23,13.96L96.76,44.9h0.13l9.95-30.93h13.92v44.98h-9.26V27.07h-0.13l-11.03,31.88h-7.62L81.7,27.38h-0.13
		v31.56h-9.26V13.96H86.23z"/>
	<path class="st0" d="M129.01,27.29c1.01-2.88,2.46-5.39,4.35-7.53s4.21-3.82,6.96-5.04c2.75-1.22,5.85-1.83,9.29-1.83
		c3.49,0,6.59,0.61,9.32,1.83c2.73,1.22,5.04,2.9,6.93,5.04c1.89,2.14,3.34,4.65,4.35,7.53c1.01,2.88,1.51,6,1.51,9.36
		c0,3.28-0.5,6.33-1.51,9.17c-1.01,2.83-2.46,5.3-4.35,7.4c-1.89,2.1-4.2,3.75-6.93,4.95c-2.73,1.2-5.84,1.79-9.32,1.79
		c-3.44,0-6.54-0.6-9.29-1.79c-2.75-1.2-5.07-2.85-6.96-4.95c-1.89-2.1-3.34-4.57-4.35-7.4s-1.51-5.89-1.51-9.17
		C127.5,33.28,128,30.17,129.01,27.29z M138.05,42.16c0.44,1.79,1.14,3.39,2.11,4.82s2.23,2.57,3.78,3.43
		c1.55,0.86,3.44,1.29,5.67,1.29c2.23,0,4.12-0.43,5.67-1.29c1.55-0.86,2.81-2.01,3.78-3.43c0.97-1.43,1.67-3.03,2.11-4.82
		c0.44-1.79,0.66-3.62,0.66-5.51c0-1.97-0.22-3.88-0.66-5.73c-0.44-1.85-1.14-3.5-2.11-4.95c-0.97-1.45-2.23-2.6-3.78-3.46
		c-1.55-0.86-3.44-1.29-5.67-1.29c-2.23,0-4.12,0.43-5.67,1.29c-1.55,0.86-2.81,2.02-3.78,3.46c-0.97,1.45-1.67,3.1-2.11,4.95
		c-0.44,1.85-0.66,3.76-0.66,5.73C137.39,38.53,137.61,40.37,138.05,42.16z"/>
	<path class="st0" d="M202.72,13.96c2.02,0,3.83,0.33,5.45,0.98c1.62,0.65,3,1.54,4.16,2.68c1.15,1.13,2.04,2.45,2.65,3.94
		c0.61,1.49,0.91,3.1,0.91,4.82c0,2.65-0.56,4.94-1.67,6.87c-1.11,1.93-2.93,3.4-5.45,4.41v0.13c1.22,0.34,2.23,0.85,3.02,1.54
		c0.8,0.69,1.45,1.51,1.95,2.46c0.5,0.95,0.87,1.99,1.1,3.12c0.23,1.13,0.39,2.27,0.47,3.4c0.04,0.71,0.08,1.55,0.13,2.52
		c0.04,0.97,0.12,1.95,0.22,2.96c0.1,1.01,0.27,1.96,0.5,2.87c0.23,0.9,0.58,1.67,1.04,2.3h-9.89c-0.55-1.43-0.88-3.13-1.01-5.1
		s-0.32-3.86-0.57-5.67c-0.34-2.35-1.05-4.07-2.14-5.17c-1.09-1.09-2.88-1.64-5.36-1.64h-9.89v17.58h-9.89V13.96H202.72z
		 M199.19,34.31c2.27,0,3.97-0.5,5.1-1.51c1.13-1.01,1.7-2.65,1.7-4.91c0-2.18-0.57-3.77-1.7-4.76c-1.13-0.99-2.83-1.48-5.1-1.48
		h-10.84v12.66H199.19z"/>
	<path class="st0" d="M257.59,13.96v8.32h-23.75v9.64h21.8v7.69h-21.8v11.02h24.25v8.32h-34.15V13.96H257.59z"/>
</g>
<path class="st1" d="M31.33,46.06c-8.23-0.26-14.61-6.51-14.61-16s6.65-16.01,15.14-16.01S47,20.37,47,30.06
	c0,3.97-1.12,7.37-3.02,10.02c-0.29,0.41-0.02,0.98,0.49,0.98h15.79c0.25,0,0.47-0.15,0.57-0.37C62.23,37.39,63,33.81,63,30.06
	C63,14.12,49.06,1.2,31.86,1.2S0.72,14.12,0.72,30.06s13.94,28.85,31.14,28.85c3.59,0,7.03-0.57,10.25-1.61
	c0.22-0.07,0.46-0.02,0.62,0.15L54.2,68.92c0.39,0.39,1.05,0.12,1.05-0.43V46.66c0-0.34-0.27-0.61-0.61-0.61L31.33,46.06
	L31.33,46.06z"/>
</svg>
